<svg xmlns="http://www.w3.org/2000/svg" xmlns:xlink="http://www.w3.org/1999/xlink" version="1.1" width="256" height="256" viewBox="0 0 256 256" xml:space="preserve">

<defs>
</defs>
<g style="stroke: none; stroke-width: 0; stroke-dasharray: none; stroke-linecap: butt; stroke-linejoin: miter; stroke-miterlimit: 10; fill: none; fill-rule: nonzero; opacity: 1;" transform="translate(1.4065934065934016 1.4065934065934016) scale(2.81 2.81)" >
	<path d="M 60.872 29.366 c -0.14 -1.52 -1.415 -2.683 -2.942 -2.683 H 34.633 H 33.12 H 9.823 c -1.527 0 -2.802 1.163 -2.942 2.683 L 1.593 86.775 C 1.434 88.506 2.796 90 4.535 90 H 33.12 h 1.513 h 28.585 c 1.739 0 3.101 -1.494 2.942 -3.225 L 60.872 29.366 z M 17.389 40.837 c -2.339 0 -4.242 -1.903 -4.242 -4.242 c 0 -2.339 1.903 -4.242 4.242 -4.242 c 2.339 0 4.242 1.903 4.242 4.242 C 21.63 38.934 19.727 40.837 17.389 40.837 z M 50.364 40.837 c -2.339 0 -4.242 -1.903 -4.242 -4.242 c 0 -2.339 1.903 -4.242 4.242 -4.242 c 2.339 0 4.242 1.903 4.242 4.242 C 54.607 38.934 52.704 40.837 50.364 40.837 z" style="stroke: none; stroke-width: 1; stroke-dasharray: none; stroke-linecap: butt; stroke-linejoin: miter; stroke-miterlimit: 10; fill: rgb(231,78,58); fill-rule: nonzero; opacity: 1;" transform=" matrix(1 0 0 1 0 0) " stroke-linecap="round" />
	<path d="M 50.364 37.606 c -0.559 0 -1.011 -0.453 -1.011 -1.011 V 17.499 c 0 -8.534 -6.943 -15.477 -15.477 -15.477 S 18.4 8.965 18.4 17.499 v 19.096 c 0 0.558 -0.453 1.011 -1.011 1.011 c -0.558 0 -1.011 -0.453 -1.011 -1.011 V 17.499 C 16.377 7.85 24.227 0 33.876 0 s 17.499 7.85 17.499 17.499 v 19.096 C 51.376 37.154 50.923 37.606 50.364 37.606 z" style="stroke: none; stroke-width: 1; stroke-dasharray: none; stroke-linecap: butt; stroke-linejoin: miter; stroke-miterlimit: 10; fill: rgb(64,89,107); fill-rule: nonzero; opacity: 1;" transform=" matrix(1 0 0 1 0 0) " stroke-linecap="round" />
	<path d="M 84.765 48.187 c -0.097 -1.048 -0.976 -1.85 -2.029 -1.85 H 66.67 h -1.043 H 49.561 c -1.053 0 -1.932 0.802 -2.029 1.85 l -3.646 39.588 C 43.776 88.97 44.716 90 45.915 90 h 19.712 h 1.043 h 19.712 c 1.199 0 2.139 -1.03 2.029 -2.224 L 84.765 48.187 z M 54.779 56.098 c -1.613 0 -2.926 -1.312 -2.926 -2.925 c 0 -1.613 1.312 -2.926 2.926 -2.926 c 1.613 0 2.925 1.312 2.925 2.926 C 57.704 54.786 56.392 56.098 54.779 56.098 z M 77.519 56.098 c -1.613 0 -2.926 -1.312 -2.926 -2.925 c 0 -1.613 1.312 -2.926 2.926 -2.926 c 1.613 0 2.926 1.312 2.926 2.926 C 80.444 54.786 79.132 56.098 77.519 56.098 z" style="stroke: none; stroke-width: 1; stroke-dasharray: none; stroke-linecap: butt; stroke-linejoin: miter; stroke-miterlimit: 10; fill: rgb(255,112,88); fill-rule: nonzero; opacity: 1;" transform=" matrix(1 0 0 1 0 0) " stroke-linecap="round" />
	<path d="M 66.149 78.454 c -6.827 0 -12.382 -5.555 -12.382 -12.382 V 52.904 c 0 -0.559 0.452 -1.011 1.011 -1.011 s 1.011 0.452 1.011 1.011 v 13.168 c 0 5.712 4.647 10.359 10.359 10.359 c 5.712 0 10.358 -4.647 10.358 -10.359 V 52.904 c 0 -0.559 0.452 -1.011 1.011 -1.011 s 1.011 0.452 1.011 1.011 v 13.168 C 78.53 72.899 72.976 78.454 66.149 78.454 z" style="stroke: none; stroke-width: 1; stroke-dasharray: none; stroke-linecap: butt; stroke-linejoin: miter; stroke-miterlimit: 10; fill: rgb(64,89,107); fill-rule: nonzero; opacity: 1;" transform=" matrix(1 0 0 1 0 0) " stroke-linecap="round" />
</g>
</svg>